G75*
%MOIN*%
%OFA0B0*%
%FSLAX24Y24*%
%IPPOS*%
%LPD*%
%AMOC8*
5,1,8,0,0,1.08239X$1,22.5*
%
%ADD10C,0.0010*%
D10*
X003466Y016483D02*
X003516Y016483D01*
X003491Y016483D02*
X003491Y016633D01*
X003516Y016633D01*
X003589Y016583D02*
X003564Y016558D01*
X003564Y016483D01*
X003639Y016483D01*
X003664Y016508D01*
X003639Y016533D01*
X003564Y016533D01*
X003589Y016583D02*
X003639Y016583D01*
X003711Y016558D02*
X003711Y016483D01*
X003711Y016558D02*
X003736Y016583D01*
X003811Y016583D01*
X003811Y016483D01*
X003859Y016483D02*
X003909Y016483D01*
X003884Y016483D02*
X003884Y016583D01*
X003909Y016583D01*
X003957Y016558D02*
X003957Y016483D01*
X004007Y016483D02*
X004007Y016558D01*
X003982Y016583D01*
X003957Y016558D01*
X004007Y016558D02*
X004032Y016583D01*
X004057Y016583D01*
X004057Y016483D01*
X004104Y016583D02*
X004129Y016583D01*
X004179Y016533D01*
X004227Y016533D02*
X004327Y016533D01*
X004327Y016558D02*
X004302Y016583D01*
X004252Y016583D01*
X004227Y016558D01*
X004227Y016533D01*
X004252Y016483D02*
X004302Y016483D01*
X004327Y016508D01*
X004327Y016558D01*
X004375Y016583D02*
X004425Y016583D01*
X004400Y016608D02*
X004400Y016508D01*
X004375Y016483D01*
X004179Y016483D02*
X004179Y016583D01*
X004154Y016673D02*
X004129Y016673D01*
X004104Y016698D01*
X004104Y016823D01*
X004179Y016823D01*
X004204Y016798D01*
X004204Y016748D01*
X004179Y016723D01*
X004104Y016723D01*
X004057Y016723D02*
X004057Y016823D01*
X004057Y016773D02*
X004007Y016823D01*
X003982Y016823D01*
X003934Y016798D02*
X003934Y016748D01*
X003909Y016723D01*
X003859Y016723D01*
X003834Y016748D01*
X003834Y016798D01*
X003859Y016823D01*
X003909Y016823D01*
X003934Y016798D01*
X003884Y016658D02*
X003884Y016633D01*
X003787Y016748D02*
X003787Y016823D01*
X003787Y016748D02*
X003762Y016723D01*
X003686Y016723D01*
X003686Y016823D01*
X003639Y016823D02*
X003564Y016823D01*
X003539Y016798D01*
X003539Y016723D01*
X003492Y016748D02*
X003492Y016798D01*
X003467Y016823D01*
X003392Y016823D01*
X003392Y016873D02*
X003392Y016723D01*
X003467Y016723D01*
X003492Y016748D01*
X003639Y016723D02*
X003639Y016823D01*
X003639Y016963D02*
X003564Y016963D01*
X003539Y016988D01*
X003564Y017013D01*
X003614Y017013D01*
X003639Y017038D01*
X003614Y017063D01*
X003539Y017063D01*
X003492Y017038D02*
X003492Y016988D01*
X003467Y016963D01*
X003417Y016963D01*
X003392Y016988D01*
X003392Y017038D01*
X003417Y017063D01*
X003467Y017063D01*
X003492Y017038D01*
X003345Y016963D02*
X003295Y016963D01*
X003320Y016963D02*
X003320Y017113D01*
X003345Y017113D01*
X003246Y017038D02*
X003221Y017063D01*
X003171Y017063D01*
X003146Y017038D01*
X003146Y017013D01*
X003246Y017013D01*
X003246Y016988D02*
X003246Y017038D01*
X003246Y016988D02*
X003221Y016963D01*
X003171Y016963D01*
X003099Y016963D02*
X003099Y017063D01*
X003024Y017063D01*
X002999Y017038D01*
X002999Y016963D01*
X002952Y016988D02*
X002927Y016963D01*
X002877Y016963D01*
X002852Y016988D01*
X002852Y017038D01*
X002877Y017063D01*
X002927Y017063D01*
X002952Y017038D01*
X002952Y016988D01*
X003025Y016898D02*
X003025Y016873D01*
X003025Y016823D02*
X003025Y016723D01*
X003050Y016723D02*
X003000Y016723D01*
X002952Y016723D02*
X002952Y016823D01*
X002952Y016773D02*
X002902Y016823D01*
X002877Y016823D01*
X002829Y016798D02*
X002829Y016748D01*
X002804Y016723D01*
X002754Y016723D01*
X002729Y016773D02*
X002829Y016773D01*
X002829Y016798D02*
X002804Y016823D01*
X002754Y016823D01*
X002729Y016798D01*
X002729Y016773D01*
X002754Y016963D02*
X002804Y016963D01*
X002779Y016963D02*
X002779Y017063D01*
X002804Y017063D01*
X002779Y017113D02*
X002779Y017138D01*
X002706Y017038D02*
X002681Y017063D01*
X002606Y017063D01*
X002606Y017113D02*
X002606Y016963D01*
X002681Y016963D01*
X002706Y016988D01*
X002706Y017038D01*
X002559Y017038D02*
X002534Y017063D01*
X002459Y017063D01*
X002484Y017013D02*
X002534Y017013D01*
X002559Y017038D01*
X002559Y016963D02*
X002484Y016963D01*
X002459Y016988D01*
X002484Y017013D01*
X003025Y016823D02*
X003050Y016823D01*
X003097Y016823D02*
X003097Y016748D01*
X003122Y016723D01*
X003147Y016748D01*
X003172Y016723D01*
X003197Y016748D01*
X003197Y016823D01*
X003834Y017013D02*
X003934Y017013D01*
X003934Y017038D02*
X003909Y017063D01*
X003859Y017063D01*
X003834Y017038D01*
X003834Y017013D01*
X003859Y016963D02*
X003909Y016963D01*
X003934Y016988D01*
X003934Y017038D01*
X003981Y017038D02*
X003981Y016963D01*
X003981Y017038D02*
X004006Y017063D01*
X004056Y017063D01*
X004081Y017038D01*
X004129Y017063D02*
X004179Y017063D01*
X004154Y017088D02*
X004154Y016988D01*
X004129Y016963D01*
X004081Y016963D02*
X004081Y017113D01*
X004400Y017113D02*
X004400Y016963D01*
X004425Y016963D02*
X004375Y016963D01*
X004473Y016963D02*
X004523Y016963D01*
X004498Y016963D02*
X004498Y017113D01*
X004523Y017113D01*
X004595Y017063D02*
X004570Y017038D01*
X004570Y016963D01*
X004645Y016963D01*
X004670Y016988D01*
X004645Y017013D01*
X004570Y017013D01*
X004595Y017063D02*
X004645Y017063D01*
X004620Y016873D02*
X004620Y016723D01*
X004695Y016723D01*
X004720Y016748D01*
X004720Y016798D01*
X004695Y016823D01*
X004620Y016823D01*
X004572Y016823D02*
X004547Y016848D01*
X004547Y016898D01*
X004474Y016823D02*
X004399Y016823D01*
X004424Y016773D02*
X004399Y016748D01*
X004424Y016723D01*
X004499Y016723D01*
X004474Y016773D02*
X004499Y016798D01*
X004474Y016823D01*
X004474Y016773D02*
X004424Y016773D01*
X004620Y016633D02*
X004620Y016483D01*
X004695Y016483D01*
X004720Y016508D01*
X004720Y016558D01*
X004695Y016583D01*
X004620Y016583D01*
X004767Y016558D02*
X004767Y016533D01*
X004867Y016533D01*
X004867Y016558D02*
X004842Y016583D01*
X004792Y016583D01*
X004767Y016558D01*
X004792Y016483D02*
X004842Y016483D01*
X004867Y016508D01*
X004867Y016558D01*
X004915Y016583D02*
X004940Y016583D01*
X004990Y016533D01*
X005037Y016533D02*
X005137Y016533D01*
X005137Y016558D02*
X005112Y016583D01*
X005062Y016583D01*
X005037Y016558D01*
X005037Y016533D01*
X005062Y016483D02*
X005112Y016483D01*
X005137Y016508D01*
X005137Y016558D01*
X005184Y016558D02*
X005209Y016583D01*
X005284Y016583D01*
X005284Y016633D02*
X005284Y016483D01*
X005209Y016483D01*
X005184Y016508D01*
X005184Y016558D01*
X005332Y016558D02*
X005332Y016483D01*
X005382Y016483D02*
X005382Y016558D01*
X005357Y016583D01*
X005332Y016558D01*
X005382Y016558D02*
X005407Y016583D01*
X005432Y016583D01*
X005432Y016483D01*
X005479Y016483D02*
X005479Y016583D01*
X005579Y016583D02*
X005579Y016508D01*
X005554Y016483D01*
X005479Y016483D01*
X005626Y016483D02*
X005626Y016558D01*
X005651Y016583D01*
X005726Y016583D01*
X005726Y016483D01*
X005921Y016533D02*
X006021Y016533D01*
X006021Y016558D02*
X005996Y016583D01*
X005946Y016583D01*
X005921Y016558D01*
X005921Y016533D01*
X005946Y016483D02*
X005996Y016483D01*
X006021Y016508D01*
X006021Y016558D01*
X006068Y016583D02*
X006118Y016483D01*
X006168Y016583D01*
X006241Y016583D02*
X006241Y016483D01*
X006216Y016483D02*
X006267Y016483D01*
X006315Y016483D02*
X006340Y016508D01*
X006340Y016608D01*
X006365Y016583D02*
X006315Y016583D01*
X006267Y016583D02*
X006241Y016583D01*
X006241Y016633D02*
X006241Y016658D01*
X006217Y016723D02*
X006242Y016748D01*
X006217Y016773D01*
X006142Y016773D01*
X006142Y016798D02*
X006142Y016723D01*
X006217Y016723D01*
X006289Y016773D02*
X006389Y016773D01*
X006389Y016798D02*
X006364Y016823D01*
X006314Y016823D01*
X006289Y016798D01*
X006289Y016773D01*
X006314Y016723D02*
X006364Y016723D01*
X006389Y016748D01*
X006389Y016798D01*
X006388Y016963D02*
X006338Y017013D01*
X006338Y017113D01*
X006291Y017088D02*
X006291Y017063D01*
X006266Y017038D01*
X006216Y017038D01*
X006191Y017013D01*
X006191Y016988D01*
X006216Y016963D01*
X006266Y016963D01*
X006291Y016988D01*
X006291Y017088D02*
X006266Y017113D01*
X006216Y017113D01*
X006191Y017088D01*
X006144Y017038D02*
X006144Y016988D01*
X006119Y016963D01*
X006069Y016963D01*
X006044Y016988D01*
X006044Y017038D01*
X006069Y017063D01*
X006119Y017063D01*
X006144Y017038D01*
X005996Y016963D02*
X005946Y016963D01*
X005971Y016963D02*
X005971Y017113D01*
X005996Y017113D01*
X005898Y017038D02*
X005873Y017063D01*
X005823Y017063D01*
X005798Y017038D01*
X005798Y017013D01*
X005898Y017013D01*
X005898Y016988D02*
X005898Y017038D01*
X005898Y016988D02*
X005873Y016963D01*
X005823Y016963D01*
X005751Y016963D02*
X005751Y017063D01*
X005676Y017063D01*
X005651Y017038D01*
X005651Y016963D01*
X005604Y016988D02*
X005579Y016963D01*
X005528Y016963D01*
X005503Y016988D01*
X005503Y017038D01*
X005528Y017063D01*
X005579Y017063D01*
X005604Y017038D01*
X005604Y016988D01*
X005456Y016963D02*
X005406Y016963D01*
X005431Y016963D02*
X005431Y017063D01*
X005456Y017063D01*
X005431Y017113D02*
X005431Y017138D01*
X005333Y017063D02*
X005258Y017063D01*
X005258Y017113D02*
X005258Y016963D01*
X005333Y016963D01*
X005358Y016988D01*
X005358Y017038D01*
X005333Y017063D01*
X005333Y016873D02*
X005333Y016723D01*
X005358Y016723D02*
X005308Y016723D01*
X005260Y016748D02*
X005260Y016798D01*
X005235Y016823D01*
X005185Y016823D01*
X005160Y016798D01*
X005160Y016773D01*
X005260Y016773D01*
X005260Y016748D02*
X005235Y016723D01*
X005185Y016723D01*
X005112Y016723D02*
X005112Y016823D01*
X005037Y016823D01*
X005012Y016798D01*
X005012Y016723D01*
X004965Y016748D02*
X004965Y016798D01*
X004940Y016823D01*
X004890Y016823D01*
X004865Y016798D01*
X004865Y016748D01*
X004890Y016723D01*
X004940Y016723D01*
X004965Y016748D01*
X004818Y016723D02*
X004768Y016723D01*
X004793Y016723D02*
X004793Y016823D01*
X004818Y016823D01*
X004793Y016873D02*
X004793Y016898D01*
X004865Y016988D02*
X004865Y017038D01*
X004890Y017063D01*
X004940Y017063D01*
X004965Y017038D01*
X004965Y016988D01*
X004940Y016963D01*
X004890Y016963D01*
X004865Y016988D01*
X005013Y016963D02*
X005038Y016988D01*
X005038Y017088D01*
X005063Y017063D02*
X005013Y017063D01*
X005333Y016873D02*
X005358Y016873D01*
X005430Y016823D02*
X005480Y016823D01*
X005505Y016798D01*
X005505Y016748D01*
X005480Y016723D01*
X005430Y016723D01*
X005405Y016748D01*
X005405Y016798D01*
X005430Y016823D01*
X005553Y016823D02*
X005628Y016823D01*
X005653Y016798D01*
X005628Y016773D01*
X005578Y016773D01*
X005553Y016748D01*
X005578Y016723D01*
X005653Y016723D01*
X005847Y016723D02*
X005847Y016798D01*
X005872Y016823D01*
X005922Y016823D01*
X005947Y016798D01*
X005995Y016823D02*
X006070Y016823D01*
X006095Y016798D01*
X006095Y016748D01*
X006070Y016723D01*
X005995Y016723D01*
X005947Y016723D02*
X005947Y016873D01*
X006142Y016798D02*
X006167Y016823D01*
X006217Y016823D01*
X006388Y016963D02*
X006438Y017013D01*
X006438Y017113D01*
X006536Y017203D02*
X006536Y017228D01*
X006561Y017228D01*
X006561Y017203D01*
X006536Y017203D01*
X006536Y017278D02*
X006561Y017278D01*
X006561Y017303D01*
X006536Y017303D01*
X006536Y017278D01*
X006608Y017303D02*
X006683Y017303D01*
X006708Y017278D01*
X006683Y017253D01*
X006633Y017253D01*
X006608Y017228D01*
X006633Y017203D01*
X006708Y017203D01*
X006756Y017203D02*
X006756Y017278D01*
X006781Y017303D01*
X006856Y017303D01*
X006856Y017203D01*
X006903Y017228D02*
X006928Y017203D01*
X006978Y017203D01*
X007003Y017228D01*
X007003Y017278D01*
X006978Y017303D01*
X006928Y017303D01*
X006903Y017278D01*
X006903Y017228D01*
X006880Y017113D02*
X006880Y016963D01*
X006929Y016963D02*
X006954Y016988D01*
X006954Y017088D01*
X006979Y017063D02*
X006929Y017063D01*
X006880Y017038D02*
X006855Y017063D01*
X006805Y017063D01*
X006780Y017038D01*
X006780Y016963D01*
X006733Y016988D02*
X006708Y016963D01*
X006658Y016963D01*
X006633Y017013D02*
X006733Y017013D01*
X006733Y017038D02*
X006708Y017063D01*
X006658Y017063D01*
X006633Y017038D01*
X006633Y017013D01*
X006733Y016988D02*
X006733Y017038D01*
X006757Y016823D02*
X006782Y016798D01*
X006782Y016748D01*
X006757Y016723D01*
X006682Y016723D01*
X006610Y016748D02*
X006610Y016848D01*
X006635Y016823D02*
X006585Y016823D01*
X006610Y016748D02*
X006585Y016723D01*
X006682Y016823D02*
X006757Y016823D01*
X006829Y016798D02*
X006829Y016773D01*
X006929Y016773D01*
X006929Y016798D02*
X006904Y016823D01*
X006854Y016823D01*
X006829Y016798D01*
X006854Y016723D02*
X006904Y016723D01*
X006929Y016748D01*
X006929Y016798D01*
X006977Y016798D02*
X006977Y016723D01*
X006977Y016798D02*
X007002Y016823D01*
X007077Y016823D01*
X007077Y016723D01*
X007124Y016723D02*
X007124Y016798D01*
X007149Y016823D01*
X007224Y016823D01*
X007224Y016723D01*
X007271Y016748D02*
X007271Y016798D01*
X007296Y016823D01*
X007346Y016823D01*
X007371Y016798D01*
X007371Y016748D01*
X007346Y016723D01*
X007296Y016723D01*
X007271Y016748D01*
X007419Y016723D02*
X007494Y016723D01*
X007519Y016748D01*
X007519Y016798D01*
X007494Y016823D01*
X007419Y016823D01*
X007444Y016963D02*
X007494Y016963D01*
X007519Y016988D01*
X007519Y017038D01*
X007494Y017063D01*
X007444Y017063D01*
X007419Y017038D01*
X007419Y017013D01*
X007519Y017013D01*
X007566Y017038D02*
X007566Y016963D01*
X007566Y017038D02*
X007591Y017063D01*
X007666Y017063D01*
X007666Y016963D01*
X007713Y016963D02*
X007713Y017038D01*
X007738Y017063D01*
X007813Y017063D01*
X007813Y016963D01*
X007861Y016988D02*
X007861Y017038D01*
X007886Y017063D01*
X007936Y017063D01*
X007961Y017038D01*
X007961Y016988D01*
X007936Y016963D01*
X007886Y016963D01*
X007861Y016988D01*
X008008Y016988D02*
X008033Y016963D01*
X008083Y016963D01*
X008108Y016988D01*
X008108Y017088D01*
X008083Y017113D01*
X008033Y017113D01*
X008008Y017088D01*
X008010Y017203D02*
X008010Y017303D01*
X007935Y017303D01*
X007910Y017278D01*
X007910Y017203D01*
X007863Y017203D02*
X007787Y017203D01*
X007762Y017228D01*
X007787Y017253D01*
X007838Y017253D01*
X007863Y017278D01*
X007838Y017303D01*
X007762Y017303D01*
X007715Y017303D02*
X007665Y017303D01*
X007690Y017328D02*
X007690Y017228D01*
X007665Y017203D01*
X007617Y017203D02*
X007617Y017303D01*
X007617Y017253D02*
X007567Y017303D01*
X007542Y017303D01*
X007494Y017303D02*
X007494Y017228D01*
X007469Y017203D01*
X007394Y017203D01*
X007394Y017303D01*
X007347Y017278D02*
X007347Y017228D01*
X007322Y017203D01*
X007247Y017203D01*
X007175Y017228D02*
X007150Y017203D01*
X007175Y017228D02*
X007175Y017328D01*
X007200Y017303D02*
X007150Y017303D01*
X007101Y017303D02*
X007076Y017303D01*
X007076Y017203D01*
X007101Y017203D02*
X007051Y017203D01*
X007076Y017353D02*
X007076Y017378D01*
X007199Y017088D02*
X007199Y016988D01*
X007174Y016963D01*
X007271Y016963D02*
X007346Y016963D01*
X007371Y016988D01*
X007371Y017038D01*
X007346Y017063D01*
X007271Y017063D01*
X007224Y017063D02*
X007174Y017063D01*
X007247Y017303D02*
X007322Y017303D01*
X007347Y017278D01*
X007713Y016873D02*
X007713Y016723D01*
X007788Y016723D01*
X007813Y016748D01*
X007813Y016798D01*
X007788Y016823D01*
X007713Y016823D01*
X007861Y016798D02*
X007861Y016723D01*
X007861Y016798D02*
X007886Y016823D01*
X007961Y016823D01*
X007961Y016723D01*
X008008Y016723D02*
X008083Y016723D01*
X008108Y016748D01*
X008083Y016773D01*
X008008Y016773D01*
X008008Y016798D02*
X008008Y016723D01*
X008008Y016798D02*
X008033Y016823D01*
X008083Y016823D01*
X008083Y016608D02*
X008083Y016508D01*
X008058Y016483D01*
X008010Y016508D02*
X007985Y016483D01*
X007935Y016483D01*
X007910Y016508D01*
X007910Y016558D01*
X007935Y016583D01*
X007985Y016583D01*
X008010Y016558D01*
X008010Y016508D01*
X008058Y016583D02*
X008108Y016583D01*
X008108Y017203D02*
X008058Y017203D01*
X008083Y017203D02*
X008083Y017353D01*
X008108Y017353D02*
X008058Y017353D01*
X007690Y016658D02*
X007690Y016633D01*
X007690Y016583D02*
X007690Y016483D01*
X007715Y016483D02*
X007665Y016483D01*
X007592Y016508D02*
X007567Y016483D01*
X007592Y016508D02*
X007592Y016608D01*
X007617Y016583D02*
X007567Y016583D01*
X007519Y016558D02*
X007494Y016583D01*
X007419Y016583D01*
X007444Y016533D02*
X007494Y016533D01*
X007519Y016558D01*
X007519Y016483D02*
X007444Y016483D01*
X007419Y016508D01*
X007444Y016533D01*
X007224Y016533D02*
X007174Y016583D01*
X007149Y016583D01*
X007101Y016558D02*
X007101Y016508D01*
X007076Y016483D01*
X007026Y016483D01*
X007001Y016533D02*
X007101Y016533D01*
X007101Y016558D02*
X007076Y016583D01*
X007026Y016583D01*
X007001Y016558D01*
X007001Y016533D01*
X006954Y016558D02*
X006929Y016583D01*
X006854Y016583D01*
X006807Y016583D02*
X006807Y016433D01*
X006807Y016483D02*
X006732Y016483D01*
X006707Y016508D01*
X006707Y016558D01*
X006732Y016583D01*
X006807Y016583D01*
X006879Y016533D02*
X006854Y016508D01*
X006879Y016483D01*
X006954Y016483D01*
X006929Y016533D02*
X006954Y016558D01*
X006929Y016533D02*
X006879Y016533D01*
X006659Y016533D02*
X006559Y016533D01*
X006559Y016558D01*
X006584Y016583D01*
X006634Y016583D01*
X006659Y016558D01*
X006659Y016508D01*
X006634Y016483D01*
X006584Y016483D01*
X006512Y016508D02*
X006512Y016558D01*
X006487Y016583D01*
X006412Y016583D01*
X006412Y016483D02*
X006487Y016483D01*
X006512Y016508D01*
X007224Y016483D02*
X007224Y016583D01*
X007690Y016583D02*
X007715Y016583D01*
X007700Y018274D02*
X007700Y018424D01*
X007775Y018349D01*
X007675Y018349D01*
X007627Y018374D02*
X007577Y018424D01*
X007577Y018274D01*
X007627Y018274D02*
X007527Y018274D01*
X007480Y018274D02*
X007380Y018274D01*
X007333Y018274D02*
X007233Y018374D01*
X007233Y018399D01*
X007258Y018424D01*
X007308Y018424D01*
X007333Y018399D01*
X007430Y018424D02*
X007430Y018274D01*
X007333Y018274D02*
X007233Y018274D01*
X007185Y018274D02*
X007085Y018274D01*
X007038Y018274D02*
X006938Y018274D01*
X007038Y018274D02*
X007038Y018424D01*
X007085Y018424D02*
X007185Y018424D01*
X007185Y018274D01*
X007185Y018349D02*
X007135Y018349D01*
X007209Y018514D02*
X007209Y018639D01*
X007184Y018664D01*
X007184Y018589D02*
X007234Y018589D01*
X007283Y018589D02*
X007333Y018589D01*
X007380Y018589D02*
X007405Y018614D01*
X007455Y018614D01*
X007480Y018589D01*
X007480Y018539D01*
X007455Y018514D01*
X007405Y018514D01*
X007380Y018539D01*
X007380Y018589D01*
X007308Y018639D02*
X007308Y018514D01*
X007308Y018639D02*
X007283Y018664D01*
X007210Y018754D02*
X007210Y018904D01*
X007210Y018854D02*
X007135Y018854D01*
X007110Y018829D01*
X007110Y018779D01*
X007135Y018754D01*
X007210Y018754D01*
X007063Y018779D02*
X007063Y018854D01*
X007063Y018779D02*
X007038Y018754D01*
X006963Y018754D01*
X006963Y018729D02*
X006988Y018704D01*
X007013Y018704D01*
X006963Y018729D02*
X006963Y018854D01*
X007012Y018994D02*
X006987Y019019D01*
X006987Y019119D01*
X007012Y019144D01*
X007062Y019144D01*
X007087Y019119D01*
X007087Y019094D01*
X007062Y019069D01*
X006987Y019069D01*
X006940Y019069D02*
X006865Y019144D01*
X006865Y018994D01*
X006793Y018994D02*
X006692Y018994D01*
X006645Y018994D02*
X006545Y018994D01*
X006498Y018994D02*
X006398Y019094D01*
X006398Y019119D01*
X006423Y019144D01*
X006473Y019144D01*
X006498Y019119D01*
X006595Y019144D02*
X006595Y018994D01*
X006596Y018929D02*
X006596Y018904D01*
X006596Y018854D02*
X006596Y018754D01*
X006621Y018754D02*
X006571Y018754D01*
X006522Y018754D02*
X006472Y018754D01*
X006497Y018754D02*
X006497Y018904D01*
X006522Y018904D01*
X006596Y018854D02*
X006621Y018854D01*
X006668Y018904D02*
X006668Y018754D01*
X006718Y018804D01*
X006768Y018754D01*
X006768Y018904D01*
X006742Y018994D02*
X006742Y019144D01*
X006793Y019094D01*
X006840Y019069D02*
X006940Y019069D01*
X007012Y018994D02*
X007062Y018994D01*
X007087Y019019D01*
X007134Y018994D02*
X007234Y018994D01*
X007234Y019144D01*
X007134Y019144D01*
X007184Y019069D02*
X007234Y019069D01*
X007282Y018994D02*
X007382Y018994D01*
X007382Y019144D01*
X007429Y019144D02*
X007529Y019144D01*
X007479Y019144D02*
X007479Y018994D01*
X007505Y018904D02*
X007430Y018904D01*
X007404Y018879D01*
X007404Y018829D01*
X007430Y018804D01*
X007505Y018804D01*
X007505Y018754D02*
X007505Y018904D01*
X007552Y018854D02*
X007552Y018754D01*
X007552Y018829D02*
X007652Y018829D01*
X007652Y018854D02*
X007652Y018754D01*
X007699Y018779D02*
X007724Y018754D01*
X007774Y018754D01*
X007799Y018779D01*
X007799Y018879D01*
X007774Y018904D01*
X007724Y018904D01*
X007699Y018879D01*
X007652Y018854D02*
X007602Y018904D01*
X007552Y018854D01*
X007455Y018804D02*
X007404Y018754D01*
X007430Y018424D02*
X007480Y018374D01*
X007675Y018514D02*
X007675Y018664D01*
X007675Y018614D02*
X007750Y018614D01*
X007775Y018589D01*
X007775Y018539D01*
X007750Y018514D01*
X007675Y018514D01*
X007822Y018564D02*
X007922Y018564D01*
X007922Y018539D02*
X007922Y018589D01*
X007897Y018614D01*
X007847Y018614D01*
X007822Y018589D01*
X007822Y018564D01*
X007847Y018514D02*
X007897Y018514D01*
X007922Y018539D01*
X007969Y018539D02*
X007994Y018564D01*
X008044Y018564D01*
X008069Y018589D01*
X008044Y018614D01*
X007969Y018614D01*
X007969Y018539D02*
X007994Y018514D01*
X008069Y018514D01*
X008117Y018514D02*
X008192Y018514D01*
X008217Y018539D01*
X008192Y018564D01*
X008117Y018564D01*
X008117Y018589D02*
X008117Y018514D01*
X008117Y018589D02*
X008142Y018614D01*
X008192Y018614D01*
X008264Y018614D02*
X008264Y018639D01*
X008289Y018664D01*
X008364Y018664D01*
X008364Y018514D01*
X008289Y018514D01*
X008264Y018539D01*
X008264Y018564D01*
X008289Y018589D01*
X008364Y018589D01*
X008289Y018589D02*
X008264Y018614D01*
X008192Y018754D02*
X008217Y018779D01*
X008217Y018829D01*
X008192Y018854D01*
X008142Y018854D01*
X008117Y018829D01*
X008117Y018779D01*
X008142Y018754D01*
X008192Y018754D01*
X008069Y018754D02*
X008069Y018854D01*
X008069Y018804D02*
X008019Y018854D01*
X007994Y018854D01*
X007971Y018994D02*
X007971Y019094D01*
X007896Y019094D01*
X007871Y019069D01*
X007871Y018994D01*
X007824Y019019D02*
X007799Y018994D01*
X007724Y018994D01*
X007724Y018969D02*
X007724Y019094D01*
X007799Y019094D01*
X007824Y019069D01*
X007824Y019019D01*
X007774Y018944D02*
X007749Y018944D01*
X007724Y018969D01*
X007724Y019234D02*
X007724Y019309D01*
X007749Y019334D01*
X007824Y019334D01*
X007824Y019234D01*
X007871Y019284D02*
X007971Y019284D01*
X007971Y019259D02*
X007971Y019309D01*
X007946Y019334D01*
X007896Y019334D01*
X007871Y019309D01*
X007871Y019284D01*
X007896Y019234D02*
X007946Y019234D01*
X007971Y019259D01*
X008019Y019234D02*
X008069Y019234D01*
X008044Y019234D02*
X008044Y019384D01*
X008069Y019384D01*
X008142Y019334D02*
X008117Y019309D01*
X008117Y019259D01*
X008142Y019234D01*
X008192Y019234D01*
X008217Y019259D01*
X008217Y019309D01*
X008192Y019334D01*
X008142Y019334D01*
X008264Y019359D02*
X008289Y019384D01*
X008339Y019384D01*
X008364Y019359D01*
X008364Y019334D01*
X008339Y019309D01*
X008289Y019309D01*
X008264Y019284D01*
X008264Y019259D01*
X008289Y019234D01*
X008339Y019234D01*
X008364Y019259D01*
X008364Y019144D02*
X008364Y019019D01*
X008339Y018994D01*
X008289Y018994D01*
X008264Y019019D01*
X008264Y019144D01*
X008192Y019094D02*
X008217Y019069D01*
X008192Y019044D01*
X008142Y019044D01*
X008117Y019019D01*
X008142Y018994D01*
X008217Y018994D01*
X008264Y018904D02*
X008364Y018904D01*
X008364Y018754D01*
X008364Y018829D02*
X008314Y018829D01*
X008314Y018424D02*
X008314Y018274D01*
X008217Y018274D02*
X008217Y018424D01*
X008264Y018424D02*
X008364Y018424D01*
X008217Y018274D02*
X008117Y018274D01*
X008069Y018274D02*
X008069Y018424D01*
X007969Y018424D01*
X007922Y018399D02*
X007922Y018374D01*
X007897Y018349D01*
X007822Y018349D01*
X007822Y018299D02*
X007822Y018399D01*
X007847Y018424D01*
X007897Y018424D01*
X007922Y018399D01*
X007922Y018299D02*
X007897Y018274D01*
X007847Y018274D01*
X007822Y018299D01*
X007969Y018274D02*
X008069Y018274D01*
X008069Y018349D02*
X008019Y018349D01*
X008019Y018994D02*
X008069Y018994D01*
X008044Y018994D02*
X008044Y019094D01*
X008069Y019094D01*
X008117Y019094D02*
X008192Y019094D01*
X008044Y019144D02*
X008044Y019169D01*
X007676Y019259D02*
X007651Y019234D01*
X007601Y019234D01*
X007576Y019259D01*
X007576Y019309D01*
X007601Y019334D01*
X007651Y019334D01*
X007676Y019309D01*
X007676Y019259D01*
X007529Y019234D02*
X007479Y019234D01*
X007504Y019234D02*
X007504Y019334D01*
X007529Y019334D01*
X007504Y019384D02*
X007504Y019409D01*
X007406Y019334D02*
X007331Y019334D01*
X007331Y019384D02*
X007331Y019234D01*
X007406Y019234D01*
X007431Y019259D01*
X007431Y019309D01*
X007406Y019334D01*
X007136Y019384D02*
X007136Y019234D01*
X007061Y019234D01*
X007036Y019259D01*
X007036Y019359D01*
X007061Y019384D01*
X007136Y019384D01*
X006989Y019334D02*
X006989Y019234D01*
X006989Y019284D02*
X006939Y019334D01*
X006914Y019334D01*
X006866Y019334D02*
X006841Y019334D01*
X006841Y019234D01*
X006866Y019234D02*
X006816Y019234D01*
X006718Y019234D02*
X006668Y019334D01*
X006621Y019309D02*
X006596Y019334D01*
X006546Y019334D01*
X006521Y019309D01*
X006521Y019284D01*
X006621Y019284D01*
X006621Y019259D02*
X006621Y019309D01*
X006621Y019259D02*
X006596Y019234D01*
X006546Y019234D01*
X006473Y019234D02*
X006473Y019334D01*
X006473Y019284D02*
X006423Y019334D01*
X006398Y019334D01*
X006351Y019144D02*
X006351Y018994D01*
X006250Y018994D01*
X006203Y018994D02*
X006103Y018994D01*
X006203Y018994D02*
X006203Y019144D01*
X006250Y019144D02*
X006351Y019144D01*
X006351Y019069D02*
X006300Y019069D01*
X006398Y018994D02*
X006498Y018994D01*
X006424Y018904D02*
X006399Y018904D01*
X006399Y018754D01*
X006424Y018754D02*
X006374Y018754D01*
X006326Y018754D02*
X006276Y018754D01*
X006301Y018754D02*
X006301Y018854D01*
X006326Y018854D01*
X006301Y018904D02*
X006301Y018929D01*
X006203Y018854D02*
X006153Y018854D01*
X006128Y018829D01*
X006128Y018754D01*
X006203Y018754D01*
X006228Y018779D01*
X006203Y018804D01*
X006128Y018804D01*
X006080Y018754D02*
X006080Y018854D01*
X006055Y018854D01*
X006030Y018829D01*
X006005Y018854D01*
X005980Y018829D01*
X005980Y018754D01*
X006030Y018754D02*
X006030Y018829D01*
X006007Y018614D02*
X005982Y018614D01*
X005957Y018589D01*
X005932Y018614D01*
X005907Y018589D01*
X005907Y018514D01*
X005957Y018514D02*
X005957Y018589D01*
X006007Y018614D02*
X006007Y018514D01*
X006054Y018564D02*
X006154Y018564D01*
X006154Y018539D02*
X006154Y018589D01*
X006129Y018614D01*
X006079Y018614D01*
X006054Y018589D01*
X006054Y018564D01*
X006079Y018514D02*
X006129Y018514D01*
X006154Y018539D01*
X006201Y018514D02*
X006201Y018589D01*
X006226Y018614D01*
X006276Y018614D01*
X006301Y018589D01*
X006349Y018614D02*
X006424Y018614D01*
X006449Y018589D01*
X006449Y018539D01*
X006424Y018514D01*
X006349Y018514D01*
X006301Y018514D02*
X006301Y018664D01*
X006496Y018614D02*
X006571Y018614D01*
X006596Y018589D01*
X006571Y018564D01*
X006521Y018564D01*
X006496Y018539D01*
X006521Y018514D01*
X006596Y018514D01*
X006643Y018424D02*
X006643Y018274D01*
X006596Y018299D02*
X006571Y018274D01*
X006521Y018274D01*
X006496Y018299D01*
X006496Y018349D01*
X006521Y018374D01*
X006571Y018374D01*
X006596Y018349D01*
X006596Y018299D01*
X006693Y018374D02*
X006643Y018424D01*
X006693Y018374D02*
X006743Y018424D01*
X006743Y018274D01*
X006817Y018514D02*
X006817Y018639D01*
X006792Y018664D01*
X006792Y018589D02*
X006842Y018589D01*
X006889Y018589D02*
X006914Y018614D01*
X006964Y018614D01*
X006989Y018589D01*
X006989Y018539D01*
X006964Y018514D01*
X006914Y018514D01*
X006889Y018539D01*
X006889Y018589D01*
X006449Y018374D02*
X006399Y018374D01*
X006424Y018399D02*
X006424Y018299D01*
X006399Y018274D01*
X006351Y018299D02*
X006326Y018274D01*
X006275Y018274D01*
X006250Y018299D01*
X006250Y018349D01*
X006275Y018374D01*
X006326Y018374D01*
X006351Y018349D01*
X006351Y018299D01*
X006203Y018274D02*
X006203Y018374D01*
X006203Y018324D02*
X006153Y018374D01*
X006128Y018374D01*
X005933Y018374D02*
X005908Y018349D01*
X005858Y018349D01*
X005833Y018324D01*
X005833Y018299D01*
X005858Y018274D01*
X005908Y018274D01*
X005933Y018299D01*
X005933Y018374D02*
X005933Y018399D01*
X005908Y018424D01*
X005858Y018424D01*
X005833Y018399D01*
X005786Y018424D02*
X005786Y018274D01*
X005786Y018349D02*
X005761Y018374D01*
X005711Y018374D01*
X005686Y018349D01*
X005686Y018274D01*
X005638Y018274D02*
X005588Y018274D01*
X005613Y018274D02*
X005613Y018374D01*
X005638Y018374D01*
X005613Y018424D02*
X005613Y018449D01*
X005614Y018514D02*
X005564Y018514D01*
X005589Y018514D02*
X005589Y018614D01*
X005614Y018614D01*
X005662Y018614D02*
X005712Y018614D01*
X005687Y018639D02*
X005687Y018539D01*
X005662Y018514D01*
X005759Y018514D02*
X005834Y018514D01*
X005859Y018539D01*
X005834Y018564D01*
X005759Y018564D01*
X005759Y018589D02*
X005759Y018514D01*
X005759Y018589D02*
X005784Y018614D01*
X005834Y018614D01*
X005786Y018754D02*
X005711Y018754D01*
X005686Y018779D01*
X005686Y018879D01*
X005711Y018904D01*
X005786Y018904D01*
X005786Y018754D01*
X005638Y018779D02*
X005613Y018804D01*
X005538Y018804D01*
X005538Y018829D02*
X005538Y018754D01*
X005613Y018754D01*
X005638Y018779D01*
X005613Y018854D02*
X005563Y018854D01*
X005538Y018829D01*
X005491Y018854D02*
X005491Y018754D01*
X005391Y018754D02*
X005391Y018829D01*
X005416Y018854D01*
X005491Y018854D01*
X005344Y018854D02*
X005319Y018854D01*
X005319Y018754D01*
X005344Y018754D02*
X005294Y018754D01*
X005246Y018779D02*
X005246Y018829D01*
X005221Y018854D01*
X005171Y018854D01*
X005146Y018829D01*
X005146Y018804D01*
X005246Y018804D01*
X005246Y018779D02*
X005221Y018754D01*
X005171Y018754D01*
X005098Y018754D02*
X005048Y018754D01*
X005073Y018754D02*
X005073Y018904D01*
X005098Y018904D01*
X005000Y018829D02*
X004975Y018854D01*
X004900Y018854D01*
X004925Y018804D02*
X004975Y018804D01*
X005000Y018829D01*
X005000Y018754D02*
X004925Y018754D01*
X004900Y018779D01*
X004925Y018804D01*
X004925Y018614D02*
X004975Y018614D01*
X005000Y018589D01*
X005000Y018539D01*
X004975Y018514D01*
X004925Y018514D01*
X004900Y018539D01*
X004900Y018589D01*
X004925Y018614D01*
X004853Y018614D02*
X004828Y018614D01*
X004803Y018589D01*
X004778Y018614D01*
X004753Y018589D01*
X004753Y018514D01*
X004803Y018514D02*
X004803Y018589D01*
X004853Y018614D02*
X004853Y018514D01*
X005048Y018614D02*
X005073Y018614D01*
X005123Y018564D01*
X005123Y018514D02*
X005123Y018614D01*
X005171Y018589D02*
X005221Y018589D01*
X005196Y018639D02*
X005196Y018514D01*
X005195Y018424D02*
X005195Y018274D01*
X005270Y018274D01*
X005295Y018299D01*
X005295Y018349D01*
X005270Y018374D01*
X005195Y018374D01*
X005343Y018274D02*
X005393Y018274D01*
X005368Y018274D02*
X005368Y018424D01*
X005393Y018424D01*
X005465Y018374D02*
X005440Y018349D01*
X005440Y018324D01*
X005540Y018324D01*
X005540Y018299D02*
X005540Y018349D01*
X005515Y018374D01*
X005465Y018374D01*
X005465Y018274D02*
X005515Y018274D01*
X005540Y018299D01*
X005491Y018514D02*
X005416Y018514D01*
X005491Y018514D02*
X005516Y018539D01*
X005516Y018589D01*
X005491Y018614D01*
X005416Y018614D01*
X005589Y018664D02*
X005589Y018689D01*
X005319Y018904D02*
X005319Y018929D01*
X005171Y018664D02*
X005196Y018639D01*
X005171Y019234D02*
X005096Y019234D01*
X005096Y019309D01*
X005121Y019334D01*
X005171Y019334D01*
X005171Y019284D02*
X005096Y019284D01*
X005049Y019234D02*
X005049Y019334D01*
X004974Y019334D01*
X004949Y019309D01*
X004949Y019234D01*
X004755Y019234D02*
X004654Y019334D01*
X004654Y019359D01*
X004679Y019384D01*
X004729Y019384D01*
X004755Y019359D01*
X004755Y019234D02*
X004654Y019234D01*
X004607Y019259D02*
X004507Y019359D01*
X004507Y019259D01*
X004532Y019234D01*
X004582Y019234D01*
X004607Y019259D01*
X004607Y019359D01*
X004582Y019384D01*
X004532Y019384D01*
X004507Y019359D01*
X004460Y019359D02*
X004435Y019384D01*
X004385Y019384D01*
X004360Y019359D01*
X004360Y019334D01*
X004460Y019234D01*
X004360Y019234D01*
X004313Y019259D02*
X004212Y019359D01*
X004212Y019259D01*
X004237Y019234D01*
X004288Y019234D01*
X004313Y019259D01*
X004313Y019359D01*
X004288Y019384D01*
X004237Y019384D01*
X004212Y019359D01*
X004018Y019384D02*
X004018Y019234D01*
X004018Y019284D02*
X003943Y019284D01*
X003918Y019309D01*
X003918Y019359D01*
X003943Y019384D01*
X004018Y019384D01*
X003968Y019284D02*
X003918Y019234D01*
X003871Y019234D02*
X003770Y019234D01*
X003723Y019284D02*
X003673Y019234D01*
X003623Y019284D01*
X003623Y019384D01*
X003723Y019384D02*
X003723Y019284D01*
X003821Y019309D02*
X003871Y019309D01*
X003871Y019384D02*
X003871Y019234D01*
X003871Y019384D02*
X003770Y019384D01*
X003429Y019334D02*
X003379Y019384D01*
X003379Y019234D01*
X003429Y019234D02*
X003328Y019234D01*
X004400Y017113D02*
X004425Y017113D01*
X004990Y016583D02*
X004990Y016483D01*
X005171Y019234D02*
X005196Y019259D01*
X005171Y019284D01*
X005269Y019259D02*
X005269Y019384D01*
X005294Y019384D02*
X005244Y019384D01*
X005269Y019259D02*
X005294Y019234D01*
X005319Y019234D01*
X005344Y019259D01*
X005538Y019234D02*
X005538Y019384D01*
X005538Y019334D02*
X005613Y019334D01*
X005638Y019309D01*
X005638Y019259D01*
X005613Y019234D01*
X005538Y019234D01*
X005686Y019334D02*
X005711Y019334D01*
X005761Y019284D01*
X005808Y019284D02*
X005884Y019284D01*
X005909Y019259D01*
X005884Y019234D01*
X005808Y019234D01*
X005808Y019309D01*
X005833Y019334D01*
X005884Y019334D01*
X005956Y019309D02*
X005981Y019334D01*
X006031Y019334D01*
X006056Y019309D01*
X006056Y019259D01*
X006031Y019234D01*
X005981Y019234D01*
X005956Y019259D01*
X005956Y019309D01*
X006103Y019284D02*
X006103Y019259D01*
X006128Y019234D01*
X006203Y019234D01*
X006203Y019384D01*
X006128Y019384D01*
X006103Y019359D01*
X006103Y019334D01*
X006128Y019309D01*
X006203Y019309D01*
X006128Y019309D02*
X006103Y019284D01*
X005761Y019234D02*
X005761Y019334D01*
X006595Y019144D02*
X006645Y019094D01*
X006718Y019234D02*
X006768Y019334D01*
X006841Y019384D02*
X006841Y019409D01*
M02*
