%
M48
M72
T01C0.0236
T02C0.0240
T03C0.0320
T04C0.1102
%
T01
X5318Y6419
X6578Y5730
X6834Y8545
X8034Y11340
X8034Y11340
X7542Y12246
X7542Y12718
X6971Y12718
X6971Y12246
X6991Y14057
X6991Y14529
X7267Y15179
X7542Y14529
X7542Y14057
X8389Y15691
X7089Y17757
X4334Y12974
X5790Y11576
X3507Y18525
X10259Y15179
X10593Y12620
X10416Y18525
T02
X9192Y17277
X8472Y16557
X9462Y15917
X8932Y13557
X9132Y13097
X10352Y11917
X10332Y10407
X9294Y9962
X8802Y11347
X9822Y8437
X6932Y11667
X5712Y10127
X4992Y9857
X4202Y8467
X3182Y8477
X3182Y9997
X4442Y11547
X4202Y11987
X3542Y12827
X3106Y12357
X5102Y13007
X5582Y13017
T03
X2404Y4155
X2404Y4923
X2404Y5691
X3172Y5691
X3172Y4923
X3172Y4155
X5534Y4549
X7503Y4549
X9471Y4549
X10105Y6458
X11440Y4549
X12105Y6458
X11952Y8486
X11952Y10454
X11952Y12423
X11952Y14391
X11952Y16360
X11952Y18328
X7267Y13387
X2188Y12423
X2188Y14391
X2188Y16360
X2188Y18328
X2188Y10454
X2188Y8486
T04
X2739Y1635
X11440Y1635
X11440Y21596
X2739Y21596
M30
