G75*
%MOIN*%
%OFA0B0*%
%FSLAX24Y24*%
%IPPOS*%
%LPD*%
%AMOC8*
5,1,8,0,0,1.08239X$1,22.5*
%
%ADD10R,0.0555X0.0217*%
%ADD11R,0.1083X0.2559*%
%ADD12OC8,0.0600*%
%ADD13OC8,0.0710*%
%ADD14R,0.0444X0.0371*%
%ADD15R,0.0631X0.0631*%
%ADD16R,0.0867X0.0867*%
%ADD17C,0.1182*%
%ADD18C,0.0476*%
%ADD19R,0.0476X0.0476*%
%ADD20C,0.0480*%
D10*
X006147Y011980D03*
X006147Y012236D03*
X006147Y012492D03*
X006147Y012748D03*
X006147Y013004D03*
X006147Y013259D03*
X006147Y013515D03*
X006147Y013771D03*
X006147Y014027D03*
X006147Y014283D03*
X006147Y014539D03*
X006147Y014795D03*
X008387Y014795D03*
X008387Y014539D03*
X008387Y014283D03*
X008387Y014027D03*
X008387Y013771D03*
X008387Y013515D03*
X008387Y013259D03*
X008387Y013004D03*
X008387Y012748D03*
X008387Y012492D03*
X008387Y012236D03*
X008387Y011980D03*
D11*
X007267Y013387D03*
D12*
X010105Y006458D03*
X012105Y006458D03*
D13*
X002404Y004155D03*
X002404Y004923D03*
X002404Y005691D03*
X003172Y005691D03*
X003172Y004923D03*
X003172Y004155D03*
X005534Y004549D03*
X007503Y004549D03*
X009471Y004549D03*
X011440Y004549D03*
X011952Y008486D03*
X011952Y010454D03*
X011952Y012423D03*
X011952Y014391D03*
X011952Y016360D03*
X011952Y018328D03*
X007267Y013387D03*
X002188Y012423D03*
X002188Y014391D03*
X002188Y016360D03*
X002188Y018328D03*
X002188Y010454D03*
X002188Y008486D03*
D14*
X004452Y013466D03*
X004924Y013466D03*
X009589Y012876D03*
X010062Y012876D03*
X010062Y014155D03*
X009589Y014155D03*
D15*
X009294Y016714D03*
X009294Y017994D03*
X009294Y019273D03*
X007798Y019273D03*
X007798Y017994D03*
X007798Y016714D03*
X006223Y016714D03*
X006223Y017994D03*
X006223Y019273D03*
X004727Y019273D03*
X004727Y017994D03*
X004727Y016714D03*
X004727Y010572D03*
X004727Y009293D03*
X004727Y008013D03*
X006223Y008013D03*
X006223Y009293D03*
X006223Y010572D03*
X007798Y010572D03*
X007798Y009293D03*
X007798Y008013D03*
X009294Y008013D03*
X009294Y009293D03*
X009294Y010572D03*
D16*
X008310Y002344D03*
X006735Y002344D03*
D17*
X002739Y001635D03*
X011440Y001635D03*
X011440Y021596D03*
X002739Y021596D03*
D18*
X003507Y018525D03*
X004334Y012974D03*
X005790Y011576D03*
X006834Y008545D03*
X005318Y006419D03*
X006578Y005730D03*
X008034Y011340D03*
X008034Y011340D03*
X007267Y015179D03*
X008389Y015691D03*
X007089Y017757D03*
X010259Y015179D03*
X010593Y012620D03*
X010416Y018525D03*
D19*
X007542Y014529D03*
X007542Y014057D03*
X006991Y014057D03*
X006991Y014529D03*
X006971Y012718D03*
X006971Y012246D03*
X007542Y012246D03*
X007542Y012718D03*
D20*
X006932Y011667D03*
X005712Y010127D03*
X004992Y009857D03*
X004202Y008467D03*
X003182Y008477D03*
X003182Y009997D03*
X004442Y011547D03*
X004202Y011987D03*
X003542Y012827D03*
X003106Y012357D03*
X005102Y013007D03*
X005582Y013017D03*
X008472Y016557D03*
X009192Y017277D03*
X009462Y015917D03*
X008932Y013557D03*
X009132Y013097D03*
X010352Y011917D03*
X010332Y010407D03*
X009294Y009962D03*
X008802Y011347D03*
X009822Y008437D03*
M02*
