G75*
%MOIN*%
%OFA0B0*%
%FSLAX24Y24*%
%IPPOS*%
%LPD*%
%AMOC8*
5,1,8,0,0,1.08239X$1,22.5*
%
%ADD10C,0.0120*%
%ADD11C,0.0080*%
%ADD12C,0.0020*%
%ADD13C,0.0030*%
%ADD14C,0.0101*%
%ADD15C,0.0100*%
%ADD16C,0.0010*%
%ADD17C,0.0160*%
D10*
X010975Y006208D02*
X010975Y006458D01*
X010975Y006708D01*
X011225Y006708D02*
X011225Y006458D01*
X011225Y006208D01*
D11*
X011225Y006458D02*
X011705Y006458D01*
X010975Y006458D02*
X010505Y006458D01*
X009655Y005658D02*
X009657Y005641D01*
X009661Y005624D01*
X009668Y005608D01*
X009678Y005594D01*
X009691Y005581D01*
X009705Y005571D01*
X009721Y005564D01*
X009738Y005560D01*
X009755Y005558D01*
X012455Y005558D01*
X012472Y005560D01*
X012489Y005564D01*
X012505Y005571D01*
X012519Y005581D01*
X012532Y005594D01*
X012542Y005608D01*
X012549Y005624D01*
X012553Y005641D01*
X012555Y005658D01*
X012555Y007258D01*
X012553Y007275D01*
X012549Y007292D01*
X012542Y007308D01*
X012532Y007322D01*
X012519Y007335D01*
X012505Y007345D01*
X012489Y007352D01*
X012472Y007356D01*
X012455Y007358D01*
X009755Y007358D01*
X009738Y007356D01*
X009721Y007352D01*
X009705Y007345D01*
X009691Y007335D01*
X009678Y007322D01*
X009668Y007308D01*
X009661Y007292D01*
X009657Y007275D01*
X009655Y007258D01*
X009655Y005658D01*
X009671Y004849D02*
X009771Y004849D01*
X009771Y004749D01*
X009771Y004349D02*
X009771Y004249D01*
X009671Y004249D01*
X009271Y004249D02*
X009171Y004249D01*
X009171Y004349D01*
X009171Y004749D02*
X009171Y004849D01*
X009271Y004849D01*
X008330Y003584D02*
X007818Y003584D01*
X007818Y003072D01*
X007562Y003072D01*
X007562Y003328D01*
X007818Y003584D02*
X007818Y004096D01*
X008074Y004096D01*
X008074Y003840D01*
X007818Y003584D02*
X007050Y004096D01*
X007050Y003584D01*
X007050Y003072D01*
X007818Y003584D01*
X007803Y004249D02*
X007803Y004349D01*
X007803Y004249D02*
X007703Y004249D01*
X007803Y004749D02*
X007803Y004849D01*
X007703Y004849D01*
X007303Y004849D02*
X007203Y004849D01*
X007203Y004749D01*
X007203Y004349D02*
X007203Y004249D01*
X007303Y004249D01*
X007050Y003584D02*
X006538Y003584D01*
X005834Y004249D02*
X005834Y004349D01*
X005834Y004249D02*
X005734Y004249D01*
X005834Y004749D02*
X005834Y004849D01*
X005734Y004849D01*
X005334Y004849D02*
X005234Y004849D01*
X005234Y004749D01*
X005234Y004349D02*
X005234Y004249D01*
X005334Y004249D01*
X003472Y004355D02*
X003472Y004455D01*
X003372Y004455D01*
X003372Y004623D02*
X003472Y004623D01*
X003472Y004723D01*
X003472Y005123D02*
X003472Y005223D01*
X003372Y005223D01*
X003372Y005391D02*
X003472Y005391D01*
X003472Y005491D01*
X003472Y005891D02*
X003472Y005991D01*
X003372Y005991D01*
X002972Y005991D02*
X002872Y005991D01*
X002872Y005891D01*
X002704Y005891D02*
X002704Y005991D01*
X002604Y005991D01*
X002704Y005491D02*
X002704Y005391D01*
X002604Y005391D01*
X002604Y005223D02*
X002704Y005223D01*
X002704Y005123D01*
X002872Y005123D02*
X002872Y005223D01*
X002972Y005223D01*
X002972Y005391D02*
X002872Y005391D01*
X002872Y005491D01*
X002872Y004723D02*
X002872Y004623D01*
X002972Y004623D01*
X002972Y004455D02*
X002872Y004455D01*
X002872Y004355D01*
X002704Y004355D02*
X002704Y004455D01*
X002604Y004455D01*
X002604Y004623D02*
X002704Y004623D01*
X002704Y004723D01*
X002204Y004623D02*
X002104Y004623D01*
X002104Y004723D01*
X002104Y004455D02*
X002204Y004455D01*
X002104Y004455D02*
X002104Y004355D01*
X002104Y003955D02*
X002104Y003855D01*
X002204Y003855D01*
X002604Y003855D02*
X002704Y003855D01*
X002704Y003955D01*
X002872Y003955D02*
X002872Y003855D01*
X002972Y003855D01*
X003372Y003855D02*
X003472Y003855D01*
X003472Y003955D01*
X002204Y005223D02*
X002104Y005223D01*
X002104Y005123D01*
X002104Y005391D02*
X002204Y005391D01*
X002104Y005391D02*
X002104Y005491D01*
X002104Y005891D02*
X002104Y005991D01*
X002204Y005991D01*
X002388Y008186D02*
X002488Y008186D01*
X002488Y008286D01*
X002488Y008686D02*
X002488Y008786D01*
X002388Y008786D01*
X001988Y008786D02*
X001888Y008786D01*
X001888Y008686D01*
X001888Y008286D02*
X001888Y008186D01*
X001988Y008186D01*
X001988Y010154D02*
X001888Y010154D01*
X001888Y010254D01*
X001888Y010654D02*
X001888Y010754D01*
X001988Y010754D01*
X002388Y010754D02*
X002488Y010754D01*
X002488Y010654D01*
X002488Y010254D02*
X002488Y010154D01*
X002388Y010154D01*
X002388Y012123D02*
X002488Y012123D01*
X002488Y012223D01*
X002488Y012623D02*
X002488Y012723D01*
X002388Y012723D01*
X001988Y012723D02*
X001888Y012723D01*
X001888Y012623D01*
X001888Y012223D02*
X001888Y012123D01*
X001988Y012123D01*
X001988Y014091D02*
X001888Y014091D01*
X001888Y014191D01*
X001888Y014591D02*
X001888Y014691D01*
X001988Y014691D01*
X002388Y014691D02*
X002488Y014691D01*
X002488Y014591D01*
X002488Y014191D02*
X002488Y014091D01*
X002388Y014091D01*
X002388Y016060D02*
X002488Y016060D01*
X002488Y016160D01*
X002488Y016560D02*
X002488Y016660D01*
X002388Y016660D01*
X001988Y016660D02*
X001888Y016660D01*
X001888Y016560D01*
X001888Y016160D02*
X001888Y016060D01*
X001988Y016060D01*
X001988Y018028D02*
X001888Y018028D01*
X001888Y018128D01*
X001888Y018528D02*
X001888Y018628D01*
X001988Y018628D01*
X002388Y018628D02*
X002488Y018628D01*
X002488Y018528D01*
X002488Y018128D02*
X002488Y018028D01*
X002388Y018028D01*
X004570Y015809D02*
X005082Y015809D01*
X005082Y016320D01*
X005337Y016320D01*
X005337Y016065D01*
X005082Y015809D02*
X005082Y015297D01*
X004826Y015297D01*
X004826Y015553D01*
X005082Y015809D02*
X005849Y015297D01*
X005849Y015809D01*
X005849Y016320D01*
X005082Y015809D01*
X005849Y015809D02*
X006361Y015809D01*
X006479Y015092D02*
X006479Y015041D01*
X006479Y015092D02*
X007227Y015092D01*
X007227Y015041D01*
X007306Y015041D01*
X007306Y015092D01*
X008054Y015092D01*
X008054Y015041D01*
X008152Y015297D02*
X008920Y015809D01*
X009432Y015809D01*
X009176Y016065D02*
X009176Y016320D01*
X008920Y016320D01*
X008920Y015809D01*
X008920Y015297D01*
X008664Y015297D01*
X008664Y015553D01*
X008920Y015809D02*
X008152Y016320D01*
X008152Y015809D01*
X008152Y015297D01*
X008152Y015809D02*
X007641Y015809D01*
X007306Y015092D02*
X007227Y015092D01*
X006089Y015080D02*
X006091Y015094D01*
X006097Y015108D01*
X006105Y015120D01*
X006117Y015128D01*
X006131Y015134D01*
X006145Y015136D01*
X006159Y015134D01*
X006173Y015128D01*
X006185Y015120D01*
X006193Y015108D01*
X006199Y015094D01*
X006201Y015080D01*
X006199Y015066D01*
X006193Y015052D01*
X006185Y015040D01*
X006173Y015032D01*
X006159Y015026D01*
X006145Y015024D01*
X006131Y015026D01*
X006117Y015032D01*
X006105Y015040D01*
X006097Y015052D01*
X006091Y015066D01*
X006089Y015080D01*
X006479Y011683D02*
X008054Y011683D01*
X011652Y012123D02*
X011652Y012223D01*
X011652Y012123D02*
X011752Y012123D01*
X011652Y012623D02*
X011652Y012723D01*
X011752Y012723D01*
X012152Y012723D02*
X012252Y012723D01*
X012252Y012623D01*
X012252Y012223D02*
X012252Y012123D01*
X012152Y012123D01*
X012152Y010754D02*
X012252Y010754D01*
X012252Y010654D01*
X012252Y010254D02*
X012252Y010154D01*
X012152Y010154D01*
X011752Y010154D02*
X011652Y010154D01*
X011652Y010254D01*
X011652Y010654D02*
X011652Y010754D01*
X011752Y010754D01*
X011752Y008786D02*
X011652Y008786D01*
X011652Y008686D01*
X011652Y008286D02*
X011652Y008186D01*
X011752Y008186D01*
X012152Y008186D02*
X012252Y008186D01*
X012252Y008286D01*
X012252Y008686D02*
X012252Y008786D01*
X012152Y008786D01*
X011740Y004849D02*
X011640Y004849D01*
X011740Y004849D02*
X011740Y004749D01*
X011740Y004349D02*
X011740Y004249D01*
X011640Y004249D01*
X011240Y004249D02*
X011140Y004249D01*
X011140Y004349D01*
X011140Y004749D02*
X011140Y004849D01*
X011240Y004849D01*
X011652Y014091D02*
X011652Y014191D01*
X011652Y014091D02*
X011752Y014091D01*
X011652Y014591D02*
X011652Y014691D01*
X011752Y014691D01*
X012152Y014691D02*
X012252Y014691D01*
X012252Y014591D01*
X012252Y014191D02*
X012252Y014091D01*
X012152Y014091D01*
X012152Y016060D02*
X012252Y016060D01*
X012252Y016160D01*
X012252Y016560D02*
X012252Y016660D01*
X012152Y016660D01*
X011752Y016660D02*
X011652Y016660D01*
X011652Y016560D01*
X011652Y016160D02*
X011652Y016060D01*
X011752Y016060D01*
X011752Y018028D02*
X011652Y018028D01*
X011652Y018128D01*
X011652Y018528D02*
X011652Y018628D01*
X011752Y018628D01*
X012152Y018628D02*
X012252Y018628D01*
X012252Y018528D01*
X012252Y018128D02*
X012252Y018028D01*
X012152Y018028D01*
D12*
X010433Y013893D02*
X010287Y013893D01*
X010287Y013673D01*
X010212Y013673D02*
X010212Y013783D01*
X010176Y013820D01*
X010066Y013820D01*
X010066Y013673D01*
X009991Y013710D02*
X009955Y013673D01*
X009881Y013673D01*
X009845Y013710D01*
X009991Y013856D01*
X009991Y013710D01*
X009845Y013710D02*
X009845Y013856D01*
X009881Y013893D01*
X009955Y013893D01*
X009991Y013856D01*
X009770Y013856D02*
X009770Y013710D01*
X009734Y013673D01*
X009660Y013673D01*
X009624Y013710D01*
X009770Y013856D01*
X009734Y013893D01*
X009660Y013893D01*
X009624Y013856D01*
X009624Y013710D01*
X009549Y013673D02*
X009403Y013673D01*
X009476Y013673D02*
X009476Y013893D01*
X009403Y013820D01*
X009476Y013381D02*
X009476Y013161D01*
X009403Y013161D02*
X009549Y013161D01*
X009624Y013198D02*
X009770Y013345D01*
X009770Y013198D01*
X009734Y013161D01*
X009660Y013161D01*
X009624Y013198D01*
X009624Y013345D01*
X009660Y013381D01*
X009734Y013381D01*
X009770Y013345D01*
X009845Y013345D02*
X009845Y013198D01*
X009991Y013345D01*
X009991Y013198D01*
X009955Y013161D01*
X009881Y013161D01*
X009845Y013198D01*
X009845Y013345D02*
X009881Y013381D01*
X009955Y013381D01*
X009991Y013345D01*
X010066Y013308D02*
X010176Y013308D01*
X010212Y013271D01*
X010212Y013161D01*
X010287Y013161D02*
X010287Y013381D01*
X010433Y013381D01*
X010360Y013271D02*
X010287Y013271D01*
X010066Y013308D02*
X010066Y013161D01*
X010287Y013783D02*
X010360Y013783D01*
X009476Y013381D02*
X009403Y013308D01*
X005315Y013893D02*
X005168Y013893D01*
X005168Y013673D01*
X005094Y013673D02*
X005094Y013783D01*
X005058Y013820D01*
X004947Y013820D01*
X004947Y013673D01*
X004873Y013710D02*
X004837Y013673D01*
X004763Y013673D01*
X004726Y013710D01*
X004873Y013856D01*
X004873Y013710D01*
X004873Y013856D02*
X004837Y013893D01*
X004763Y013893D01*
X004726Y013856D01*
X004726Y013710D01*
X004652Y013710D02*
X004652Y013856D01*
X004505Y013710D01*
X004542Y013673D01*
X004616Y013673D01*
X004652Y013710D01*
X004652Y013856D02*
X004616Y013893D01*
X004542Y013893D01*
X004505Y013856D01*
X004505Y013710D01*
X004431Y013673D02*
X004284Y013673D01*
X004358Y013673D02*
X004358Y013893D01*
X004284Y013820D01*
X005168Y013783D02*
X005242Y013783D01*
X010832Y006059D02*
X010721Y005948D01*
X010868Y005948D01*
X010942Y005875D02*
X010942Y005838D01*
X010942Y005875D02*
X011089Y006022D01*
X011089Y006059D01*
X010942Y006059D01*
X010832Y006059D02*
X010832Y005838D01*
X011163Y005875D02*
X011200Y005838D01*
X011310Y005838D01*
X011310Y005985D01*
X011384Y005948D02*
X011458Y005948D01*
X011384Y005838D02*
X011384Y006059D01*
X011531Y006059D01*
X011163Y005985D02*
X011163Y005875D01*
D13*
X001792Y003186D02*
X001730Y003248D01*
X001792Y003186D02*
X001916Y003186D01*
X001977Y003248D01*
X001977Y003309D01*
X001916Y003371D01*
X001792Y003371D01*
X001730Y003433D01*
X001730Y003494D01*
X001792Y003556D01*
X001916Y003556D01*
X001977Y003494D01*
X002099Y003556D02*
X002284Y003556D01*
X002346Y003494D01*
X002346Y003248D01*
X002284Y003186D01*
X002099Y003186D01*
X002099Y003556D01*
X002467Y003494D02*
X002467Y003248D01*
X002529Y003186D01*
X002652Y003186D01*
X002714Y003248D01*
X002714Y003494D01*
X002652Y003556D01*
X002529Y003556D01*
X002467Y003494D01*
X003010Y003556D02*
X003010Y003309D01*
X003133Y003186D01*
X003257Y003309D01*
X003257Y003556D01*
X003378Y003494D02*
X003378Y003248D01*
X003440Y003186D01*
X003563Y003186D01*
X003625Y003248D01*
X003747Y003248D02*
X003808Y003186D01*
X003932Y003186D01*
X003993Y003248D01*
X003747Y003248D02*
X003747Y003494D01*
X003808Y003556D01*
X003932Y003556D01*
X003993Y003494D01*
X003625Y003494D02*
X003563Y003556D01*
X003440Y003556D01*
X003378Y003494D01*
X003951Y004209D02*
X004013Y004209D01*
X004074Y004271D01*
X004074Y004395D01*
X004136Y004456D01*
X004198Y004456D01*
X004259Y004395D01*
X004259Y004271D01*
X004198Y004209D01*
X004198Y004578D02*
X004259Y004640D01*
X004259Y004763D01*
X004198Y004825D01*
X004259Y004946D02*
X004259Y005193D01*
X004259Y005314D02*
X003889Y005314D01*
X004074Y005376D02*
X004259Y005561D01*
X004136Y005314D02*
X003889Y005561D01*
X003889Y004946D02*
X004259Y004946D01*
X003951Y004825D02*
X003889Y004763D01*
X003889Y004640D01*
X003951Y004578D01*
X004198Y004578D01*
X003951Y004456D02*
X003889Y004395D01*
X003889Y004271D01*
X003951Y004209D01*
X003563Y006257D02*
X003440Y006257D01*
X003378Y006318D01*
X003378Y006565D01*
X003440Y006627D01*
X003563Y006627D01*
X003625Y006565D01*
X003625Y006318D02*
X003563Y006257D01*
X003257Y006257D02*
X003257Y006627D01*
X003010Y006627D02*
X003257Y006257D01*
X003010Y006257D02*
X003010Y006627D01*
X002714Y006565D02*
X002714Y006318D01*
X002652Y006257D01*
X002467Y006257D01*
X002467Y006627D01*
X002652Y006627D01*
X002714Y006565D01*
X002346Y006627D02*
X002346Y006257D01*
X002099Y006627D01*
X002099Y006257D01*
X001977Y006318D02*
X001977Y006442D01*
X001854Y006442D01*
X001977Y006565D02*
X001916Y006627D01*
X001792Y006627D01*
X001730Y006565D01*
X001730Y006318D01*
X001792Y006257D01*
X001916Y006257D01*
X001977Y006318D01*
X001700Y005325D02*
X001700Y005202D01*
X001700Y005264D02*
X001330Y005264D01*
X001330Y005325D02*
X001330Y005202D01*
X001392Y005081D02*
X001330Y005019D01*
X001330Y004834D01*
X001700Y004834D01*
X001700Y005019D01*
X001639Y005081D01*
X001392Y005081D01*
X001392Y004712D02*
X001330Y004651D01*
X001330Y004527D01*
X001392Y004465D01*
X001454Y004465D01*
X001515Y004527D01*
X001515Y004651D01*
X001577Y004712D01*
X001639Y004712D01*
X001700Y004651D01*
X001700Y004527D01*
X001639Y004465D01*
X003727Y008816D02*
X003727Y009186D01*
X003850Y009186D02*
X003850Y008816D01*
X003912Y008939D02*
X003665Y008939D01*
X003665Y009063D02*
X003850Y009063D01*
X003912Y009063D01*
X004034Y009124D02*
X004095Y009186D01*
X004219Y009186D01*
X004280Y009124D01*
X004280Y009063D01*
X004219Y009001D01*
X004280Y008939D01*
X004280Y008878D01*
X004219Y008816D01*
X004095Y008816D01*
X004034Y008878D01*
X004157Y009001D02*
X004219Y009001D01*
X004219Y010351D02*
X004095Y010351D01*
X004034Y010413D01*
X004034Y010536D02*
X004157Y010598D01*
X004219Y010598D01*
X004280Y010536D01*
X004280Y010413D01*
X004219Y010351D01*
X004034Y010536D02*
X004034Y010722D01*
X004280Y010722D01*
X003912Y010598D02*
X003850Y010598D01*
X003665Y010598D01*
X003665Y010475D02*
X003912Y010475D01*
X003850Y010351D02*
X003850Y010722D01*
X003727Y010722D02*
X003727Y010351D01*
X003983Y012398D02*
X003983Y012769D01*
X004106Y012769D02*
X004106Y012398D01*
X004168Y012522D02*
X003921Y012522D01*
X003921Y012645D02*
X004106Y012645D01*
X004168Y012645D01*
X004289Y012645D02*
X004289Y012707D01*
X004351Y012769D01*
X004475Y012769D01*
X004536Y012707D01*
X004536Y012645D01*
X004475Y012584D01*
X004351Y012584D01*
X004289Y012645D01*
X004351Y012584D02*
X004289Y012522D01*
X004289Y012460D01*
X004351Y012398D01*
X004475Y012398D01*
X004536Y012460D01*
X004536Y012522D01*
X004475Y012584D01*
X004219Y014446D02*
X004095Y014446D01*
X004034Y014507D01*
X004034Y014631D01*
X004219Y014631D01*
X004280Y014569D01*
X004280Y014507D01*
X004219Y014446D01*
X004034Y014631D02*
X004157Y014754D01*
X004280Y014816D01*
X003912Y014693D02*
X003850Y014693D01*
X003665Y014693D01*
X003665Y014569D02*
X003912Y014569D01*
X003850Y014446D02*
X003850Y014816D01*
X003727Y014816D02*
X003727Y014446D01*
X003727Y016237D02*
X003727Y016607D01*
X003850Y016607D02*
X003850Y016237D01*
X003912Y016360D02*
X003665Y016360D01*
X003665Y016484D02*
X003850Y016484D01*
X003912Y016484D01*
X004034Y016422D02*
X004280Y016422D01*
X004219Y016237D02*
X004219Y016607D01*
X004034Y016422D01*
X004095Y018028D02*
X004034Y018090D01*
X004280Y018337D01*
X004280Y018090D01*
X004219Y018028D01*
X004095Y018028D01*
X004034Y018090D02*
X004034Y018337D01*
X004095Y018399D01*
X004219Y018399D01*
X004280Y018337D01*
X003912Y018275D02*
X003850Y018275D01*
X003665Y018275D01*
X003665Y018152D02*
X003912Y018152D01*
X003850Y018028D02*
X003850Y018399D01*
X003727Y018399D02*
X003727Y018028D01*
X009367Y014693D02*
X009552Y014693D01*
X009614Y014693D01*
X009735Y014693D02*
X009859Y014816D01*
X009859Y014446D01*
X009982Y014446D02*
X009735Y014446D01*
X009614Y014569D02*
X009367Y014569D01*
X009429Y014446D02*
X009429Y014816D01*
X009552Y014816D02*
X009552Y014446D01*
X010104Y014446D02*
X010350Y014446D01*
X010227Y014446D02*
X010227Y014816D01*
X010104Y014693D01*
X010175Y016237D02*
X010175Y016299D01*
X010422Y016546D01*
X010422Y016607D01*
X010175Y016607D01*
X010054Y016484D02*
X009992Y016484D01*
X009807Y016484D01*
X009807Y016360D02*
X010054Y016360D01*
X009992Y016237D02*
X009992Y016607D01*
X009869Y016607D02*
X009869Y016237D01*
X009869Y017772D02*
X009869Y018143D01*
X009992Y018143D02*
X009992Y017772D01*
X010054Y017896D02*
X009807Y017896D01*
X009807Y018019D02*
X009992Y018019D01*
X010054Y018019D01*
X010175Y018019D02*
X010299Y018143D01*
X010299Y017772D01*
X010422Y017772D02*
X010175Y017772D01*
X010165Y012769D02*
X010289Y012769D01*
X010350Y012707D01*
X010104Y012460D01*
X010165Y012398D01*
X010289Y012398D01*
X010350Y012460D01*
X010350Y012707D01*
X010165Y012769D02*
X010104Y012707D01*
X010104Y012460D01*
X009982Y012398D02*
X009735Y012398D01*
X009859Y012398D02*
X009859Y012769D01*
X009735Y012645D01*
X009614Y012645D02*
X009552Y012645D01*
X009367Y012645D01*
X009367Y012522D02*
X009614Y012522D01*
X009552Y012398D02*
X009552Y012769D01*
X009429Y012769D02*
X009429Y012398D01*
X009869Y011233D02*
X009869Y010863D01*
X009992Y010863D02*
X009992Y011233D01*
X009992Y011110D02*
X009807Y011110D01*
X009807Y010986D02*
X010054Y010986D01*
X010054Y011110D02*
X009992Y011110D01*
X010175Y011110D02*
X010175Y011172D01*
X010237Y011233D01*
X010360Y011233D01*
X010422Y011172D01*
X010422Y010925D01*
X010360Y010863D01*
X010237Y010863D01*
X010175Y010925D01*
X010237Y011048D02*
X010175Y011110D01*
X010237Y011048D02*
X010422Y011048D01*
X010360Y009186D02*
X010237Y009186D01*
X010175Y009124D01*
X010054Y009063D02*
X009992Y009063D01*
X009807Y009063D01*
X009807Y008939D02*
X010054Y008939D01*
X009992Y008816D02*
X009992Y009186D01*
X009869Y009186D02*
X009869Y008816D01*
X010175Y008816D02*
X010422Y009063D01*
X010422Y009124D01*
X010360Y009186D01*
X010422Y008816D02*
X010175Y008816D01*
X009378Y006973D02*
X009378Y006850D01*
X009378Y006912D02*
X009007Y006912D01*
X009007Y006850D01*
X009131Y006667D02*
X009131Y006543D01*
X009192Y006482D01*
X009316Y006482D01*
X009378Y006543D01*
X009378Y006667D01*
X009316Y006728D01*
X009192Y006728D01*
X009131Y006667D01*
X009069Y006360D02*
X009007Y006298D01*
X009007Y006175D01*
X009069Y006113D01*
X009131Y006113D01*
X009192Y006175D01*
X009192Y006298D01*
X009254Y006360D01*
X009316Y006360D01*
X009378Y006298D01*
X009378Y006175D01*
X009316Y006113D01*
X009254Y005992D02*
X009007Y005992D01*
X008856Y006001D02*
X008856Y006371D01*
X008609Y006371D02*
X008609Y006001D01*
X008487Y006063D02*
X008426Y006001D01*
X008302Y006001D01*
X008240Y006063D01*
X008119Y006063D02*
X008057Y006001D01*
X007934Y006001D01*
X007872Y006063D01*
X007872Y006309D01*
X007934Y006371D01*
X008057Y006371D01*
X008119Y006309D01*
X008240Y006309D02*
X008240Y006248D01*
X008302Y006186D01*
X008426Y006186D01*
X008487Y006124D01*
X008487Y006063D01*
X008487Y006309D02*
X008426Y006371D01*
X008302Y006371D01*
X008240Y006309D01*
X008609Y006371D02*
X008856Y006001D01*
X009007Y005745D02*
X009254Y005745D01*
X009378Y005868D01*
X009254Y005992D01*
X008231Y006769D02*
X008231Y007139D01*
X007985Y007139D02*
X007985Y006769D01*
X007863Y006769D02*
X007616Y006769D01*
X007616Y007139D01*
X007863Y007139D01*
X007985Y007139D02*
X008231Y006769D01*
X007740Y006954D02*
X007616Y006954D01*
X007216Y006371D02*
X007216Y006001D01*
X007155Y006001D02*
X007278Y006001D01*
X007033Y006063D02*
X006972Y006001D01*
X006848Y006001D01*
X006786Y006063D01*
X006786Y006186D01*
X006848Y006248D01*
X006972Y006248D01*
X007033Y006186D01*
X007033Y006063D01*
X007155Y006371D02*
X007216Y006371D01*
X006665Y006309D02*
X006603Y006371D01*
X006480Y006371D01*
X006418Y006309D01*
X006418Y006248D01*
X006480Y006186D01*
X006603Y006186D01*
X006665Y006124D01*
X006665Y006063D01*
X006603Y006001D01*
X006480Y006001D01*
X006418Y006063D01*
X006297Y006063D02*
X006297Y006309D01*
X006235Y006371D01*
X006050Y006371D01*
X006050Y006001D01*
X006235Y006001D01*
X006297Y006063D01*
X005928Y006001D02*
X005928Y006371D01*
X005681Y006371D02*
X005681Y006001D01*
X005560Y006063D02*
X005560Y006186D01*
X005437Y006186D01*
X005560Y006309D02*
X005498Y006371D01*
X005375Y006371D01*
X005313Y006309D01*
X005313Y006063D01*
X005375Y006001D01*
X005498Y006001D01*
X005560Y006063D01*
X005681Y006371D02*
X005928Y006001D01*
D14*
X003251Y008545D02*
X003507Y008801D01*
X003251Y008545D02*
X002739Y008545D01*
X002739Y010336D02*
X003507Y010336D01*
X003763Y012383D02*
X002739Y012383D01*
X002739Y014431D02*
X003507Y014431D01*
X003507Y016222D02*
X002739Y016222D01*
X002739Y018269D02*
X003507Y018269D01*
X010672Y018013D02*
X010928Y018269D01*
X011440Y018269D01*
X011440Y016222D02*
X010672Y016222D01*
X010672Y014431D02*
X011440Y014431D01*
X011440Y012383D02*
X010672Y012383D01*
X010672Y010848D02*
X011184Y010336D01*
X011440Y010336D01*
X010672Y008801D02*
X010928Y008545D01*
X011440Y008545D01*
D15*
X010416Y007777D02*
X009904Y007777D01*
X009904Y009569D02*
X010416Y009569D01*
X010160Y010336D02*
X009649Y010336D01*
X007601Y006754D02*
X007601Y005218D01*
X008113Y005986D02*
X009137Y004962D01*
X009649Y005218D02*
X009137Y005730D01*
X009649Y005218D02*
X010928Y005218D01*
X011184Y004962D01*
X007345Y008033D02*
X006834Y008033D01*
X007089Y008289D02*
X007089Y007777D01*
X007089Y009057D02*
X007089Y009569D01*
X006834Y009313D02*
X007345Y009313D01*
X007089Y010336D02*
X007089Y010848D01*
X006834Y010592D02*
X007345Y010592D01*
X005554Y005986D02*
X005554Y005218D01*
X004274Y007777D02*
X003763Y007777D01*
X003763Y009569D02*
X004274Y009569D01*
X004274Y010848D02*
X003763Y010848D01*
X007089Y016734D02*
X007089Y017246D01*
X006834Y016990D02*
X007345Y016990D01*
X007089Y019293D02*
X007089Y019805D01*
X006834Y019549D02*
X007345Y019549D01*
X009904Y019549D02*
X010416Y019549D01*
X010416Y018269D02*
X009904Y018269D01*
X009904Y016990D02*
X010416Y016990D01*
X004274Y016990D02*
X003763Y016990D01*
X003763Y017757D02*
X004274Y017757D01*
X004274Y019549D02*
X003763Y019549D01*
D16*
X006869Y007616D02*
X006899Y007586D01*
X006899Y007526D01*
X006931Y007526D02*
X006931Y007586D01*
X006976Y007586D01*
X006991Y007571D01*
X006991Y007526D01*
X007023Y007541D02*
X007038Y007526D01*
X007068Y007526D01*
X007083Y007541D01*
X007083Y007571D01*
X007068Y007586D01*
X007038Y007586D01*
X007023Y007571D01*
X007023Y007541D01*
X007115Y007541D02*
X007115Y007571D01*
X007130Y007586D01*
X007175Y007586D01*
X007175Y007616D02*
X007175Y007526D01*
X007130Y007526D01*
X007115Y007541D01*
X007207Y007541D02*
X007207Y007571D01*
X007222Y007586D01*
X007252Y007586D01*
X007267Y007571D01*
X007267Y007556D01*
X007207Y007556D01*
X007207Y007541D02*
X007222Y007526D01*
X007252Y007526D01*
X006899Y007571D02*
X006839Y007571D01*
X006839Y007586D02*
X006869Y007616D01*
X006839Y007586D02*
X006839Y007526D01*
X008886Y007541D02*
X008901Y007526D01*
X008931Y007526D01*
X008946Y007541D01*
X008978Y007541D02*
X008993Y007556D01*
X009038Y007556D01*
X009038Y007571D02*
X009038Y007526D01*
X008993Y007526D01*
X008978Y007541D01*
X008993Y007586D02*
X009023Y007586D01*
X009038Y007571D01*
X009070Y007586D02*
X009100Y007586D01*
X009085Y007601D02*
X009085Y007541D01*
X009100Y007526D01*
X009131Y007526D02*
X009131Y007616D01*
X009146Y007586D02*
X009176Y007586D01*
X009191Y007571D01*
X009191Y007526D01*
X009223Y007541D02*
X009238Y007526D01*
X009268Y007526D01*
X009283Y007541D01*
X009283Y007571D01*
X009268Y007586D01*
X009238Y007586D01*
X009223Y007571D01*
X009223Y007541D01*
X009146Y007586D02*
X009131Y007571D01*
X009315Y007571D02*
X009330Y007586D01*
X009376Y007586D01*
X009376Y007616D02*
X009376Y007526D01*
X009330Y007526D01*
X009315Y007541D01*
X009315Y007571D01*
X009408Y007571D02*
X009423Y007586D01*
X009453Y007586D01*
X009468Y007571D01*
X009468Y007556D01*
X009408Y007556D01*
X009408Y007541D02*
X009408Y007571D01*
X009408Y007541D02*
X009423Y007526D01*
X009453Y007526D01*
X008946Y007601D02*
X008931Y007616D01*
X008901Y007616D01*
X008886Y007601D01*
X008886Y007541D01*
D17*
X009904Y007265D02*
X010416Y007265D01*
X011696Y007265D02*
X012208Y007265D01*
X011952Y007009D02*
X011952Y007521D01*
M02*
